# xmcd
#
# Track frame offsets:
#	150
#	32744
#	51576
#	65676
#	97593
#	120326
#	153162
#
# Disc length: 2664 seconds
#
# Revision: 0
# Processed by: cddbd v1.5.2PL0 Copyright (c) Steve Scherf et al.
# Submitted via: audiograbber 1.83.01
#
DISCID=500a6607
DTITLE=Golden Earring - Complete Studio Recordings [CD 11) - To The Hilt [remas
DTITLE=tered 2017]
DYEAR=1976
DGENRE=Rock
TTITLE0=Why Me?
TTITLE1=Facedancer
TTITLE2=To The Hilt
TTITLE3=Nomad
TTITLE4=Sleepwalkin'
TTITLE5=Latin Lightning
TTITLE6=Violins
EXTD=
EXTT0=
EXTT1=
EXTT2=
EXTT3=
EXTT4=
EXTT5=
EXTT6=
PLAYORDER=
